<svg id="Default_repo" data-name="Default repo" xmlns="http://www.w3.org/2000/svg" viewBox="0 0 256 256.28"><defs><style>.cls-1{fill:#59addf;}.cls-2{fill:#fff;}</style></defs><title>default-avatar</title><rect class="cls-1" width="256" height="256.28"/><g id="_Group_" data-name="&lt;Group&gt;"><path class="cls-2" d="M161.7,162.29a4.68,4.68,0,0,1-3.31-8l23.17-23.17L158.39,108a4.68,4.68,0,1,1,6.61-6.61l26.48,26.47a4.68,4.68,0,0,1,0,6.61L165,160.92A4.66,4.66,0,0,1,161.7,162.29Z" transform="translate(0.01 0.14)"/></g><g id="_Group_2" data-name="&lt;Group&gt;"><path class="cls-2" d="M94.29,162.29A4.66,4.66,0,0,1,91,160.92L64.51,134.45a4.68,4.68,0,0,1,0-6.61L91,101.36A4.68,4.68,0,0,1,97.59,108L74.43,131.14l23.17,23.17A4.68,4.68,0,0,1,94.29,162.29Z" transform="translate(0.01 0.14)"/></g><path class="cls-2" d="M115.19,164.92a4.68,4.68,0,0,1-4.35-6.41L136.45,94a4.68,4.68,0,1,1,8.69,3.45L119.54,162A4.68,4.68,0,0,1,115.19,164.92Z" transform="translate(0.01 0.14)"/></svg>